<?xml version="1.0" encoding="UTF-8"?>
<svg id="wordmark" xmlns="http://www.w3.org/2000/svg" viewBox="0 0 4710 746.5">
  <defs>
    <style>
      .cls-1 {
        fill: #35bbef;
      }

      .cls-1, .cls-2 {
        stroke-width: 0px;
      }

      .cls-2 {
        fill: #fff;
      }
    </style>
  </defs>
  <g>
    <path class="cls-1" d="m458.75,535.75c-89.59,0-162.47-72.86-162.47-162.42s72.88-162.42,162.47-162.42,162.47,72.86,162.47,162.42-72.88,162.42-162.47,162.42Zm0-251.07c-48.89,0-88.67,39.77-88.67,88.65s39.78,88.65,88.67,88.65,88.67-39.77,88.67-88.65-39.78-88.65-88.67-88.65Z"/>
    <path class="cls-1" d="m917,283.08v182.89c0,64.66-27.48,125.16-77.4,170.4-48.61,44.05-112.92,68.3-181.1,68.3h-.31l-70.25-.45v34.41l-114.42-81.51,114.42-81.51v33.41l70.71.45c89.96-.07,163.12-64.42,163.12-143.51v-182.89c0-79.14-73.25-143.51-163.28-143.51h-128.33V44.37h128.33c68.18,0,132.49,24.25,181.1,68.3,49.92,45.24,77.4,105.75,77.4,170.4Z"/>
    <path class="cls-1" d="m259,609.35h128.33v95.19h-128.33c-68.18,0-132.49-24.25-181.1-68.3C27.98,591,.5,530.49.5,465.84v-182.89c0-64.66,27.48-125.16,77.4-170.4,9.36-8.47,19.28-16.22,29.72-23.19v-50.76c0-16.97,13.76-30.72,30.73-30.72h59.94c16.97,0,30.73,13.76,30.73,30.72v7.23c9.88-1.05,19.88-1.58,29.97-1.58h.29l70.27.4V7.91l114.42,81.51-114.42,81.51v-31.08l-70.7-.4c-89.96.07-163.14,64.42-163.14,143.51v182.89c0,79.14,73.25,143.51,163.28,143.51Z"/>
  </g>
  <g>
    <path class="cls-2" d="m1193.07,213.38c22.05,0,41.64,2.35,58.79,7.04,17.15,4.7,30.51,11.23,40.11,19.6,9.59,8.37,14.39,18.07,14.39,29.09,0,6.95-2.05,13.38-6.12,19.29-4.09,5.92-10.21,8.88-18.37,8.88-6.12,0-11.13-.92-15-2.76-3.88-1.84-7.35-4.29-10.41-7.35-3.06-3.06-7.04-5.82-11.94-8.27-4.5-2.85-11.23-5-20.21-6.43-8.99-1.43-16.75-2.14-23.27-2.14-21.65,0-40.32,4.9-56.04,14.7-15.72,9.8-27.97,22.97-36.74,39.5-8.79,16.54-13.17,35.42-13.17,56.65s4.38,40.22,13.17,56.96c8.77,16.75,20.82,30.01,36.13,39.81,15.31,9.8,33.17,14.7,53.59,14.7,11.84,0,21.74-.92,29.7-2.76,7.96-1.84,14.59-4.18,19.9-7.04,6.53-3.67,11.94-7.44,16.23-11.33,4.29-3.88,10.31-5.82,18.07-5.82,8.98,0,15.82,2.76,20.52,8.27,4.69,5.51,7.04,12.35,7.04,20.52,0,8.99-5.42,17.66-16.23,26.03-10.82,8.37-25.21,15.21-43.18,20.52-17.97,5.3-37.97,7.96-60.02,7.96-31.44,0-58.9-7.35-82.37-22.05-23.48-14.7-41.64-34.7-54.5-60.02-12.86-25.31-19.29-53.89-19.29-85.74s6.74-60.93,20.21-86.04c13.47-25.11,32.15-45.01,56.04-59.71,23.88-14.7,51.54-22.05,82.98-22.05Z"/>
    <path class="cls-2" d="m1643.81,224.7c-5.73-5.91-13.07-8.88-22.05-8.88s-16.33,3.07-22.05,9.19c-5.72,6.13-8.57,13.47-8.57,22.05v12.18c-4.57-5.23-9.88-10.31-15.92-15.24-11.03-8.98-23.99-16.33-38.89-22.05-14.91-5.71-31.14-8.57-48.69-8.57-26.94,0-51.55,7.14-73.79,21.43-22.26,14.3-39.92,33.99-52.98,59.1-13.07,25.11-19.59,54.2-19.59,87.27s6.52,61.04,19.59,86.35c13.06,25.32,30.82,45.22,53.28,59.71,22.45,14.49,47.77,21.74,75.94,21.74,15.92,0,30.82-2.76,44.71-8.27,13.87-5.51,25.92-12.34,36.13-20.52,8.08-6.46,14.82-13.25,20.21-20.36v11.79c0,8.99,2.85,16.44,8.57,22.35,5.72,5.93,13.07,8.88,22.05,8.88s16.32-2.95,22.05-8.88c5.71-5.91,8.57-13.36,8.57-22.35V247.06c0-8.98-2.86-16.43-8.57-22.36Zm-61.86,213.12c-8.17,16.95-19.59,30.32-34.29,40.12-14.7,9.8-31.65,14.7-50.83,14.7s-35.43-4.9-49.91-14.7c-14.5-9.8-25.94-23.17-34.3-40.12-8.37-16.93-12.55-35.82-12.55-56.64s4.18-40.21,12.55-56.96c8.36-16.73,19.8-29.9,34.3-39.5,14.48-9.59,31.12-14.39,49.91-14.39s36.13,4.8,50.83,14.39c14.7,9.6,26.12,22.87,34.29,39.81,8.17,16.94,12.25,35.82,12.25,56.65s-4.08,39.71-12.25,56.64Z"/>
    <path class="cls-2" d="m2204.77,349.33v162.29c0,8.99-2.86,16.44-8.57,22.35-5.73,5.93-13.08,8.88-22.05,8.88s-16.34-2.95-22.05-8.88c-5.72-5.91-8.57-13.36-8.57-22.35v-161.68c0-14.28-1.94-27.34-5.82-39.19-3.88-11.84-10.62-21.33-20.21-28.48-9.6-7.14-22.76-10.72-39.5-10.72s-30.62,3.58-42.87,10.72c-12.25,7.15-21.84,16.64-28.78,28.48-6.95,11.85-10.41,24.91-10.41,39.19v161.68c0,8.99-2.86,16.44-8.58,22.35-5.72,5.93-13.07,8.88-22.04,8.88s-16.34-2.95-22.05-8.88c-5.72-5.91-8.57-13.36-8.57-22.35v-162.29c0-14.29-1.95-27.25-5.82-38.89-3.89-11.63-10.52-21.02-19.91-28.17-9.39-7.14-22.45-10.72-39.19-10.72s-30.01,3.58-42.26,10.72c-12.24,7.15-21.74,16.54-28.47,28.17-6.74,11.64-10.11,24.6-10.11,38.89v162.29c0,8.99-2.97,16.44-8.88,22.35-5.92,5.93-13.17,8.88-21.74,8.88s-16.44-2.95-22.35-8.88c-5.93-5.91-8.88-13.36-8.88-22.35V251.96c0-8.98,2.95-16.43,8.88-22.36,5.91-5.91,13.37-8.88,22.35-8.88s15.82,2.97,21.74,8.88c5.91,5.93,8.88,13.38,8.88,22.36v18.96c.78-1.21,1.6-2.43,2.45-3.65,6.53-9.39,14.79-17.96,24.8-25.72,10-7.75,21.13-14.09,33.38-18.99,12.25-4.9,25.51-7.35,39.81-7.35,30.21,0,53.48,7.46,69.81,22.36,12.85,11.72,22.29,26.67,28.32,44.85,5.27-9.76,12.89-19.61,22.82-29.54,10.81-10.82,23.78-19.8,38.89-26.95,15.1-7.14,31.23-10.72,48.38-10.72,28.17,0,50.01,6.03,65.53,18.07,15.51,12.05,26.33,28.17,32.45,48.38,6.13,20.21,9.19,42.77,9.19,67.67Z"/>
    <path class="cls-2" d="m2300.3,384.24c-8.57,0-15.92-2.96-22.05-8.88-6.12-5.91-9.19-13.17-9.19-21.74s3.06-16.23,9.19-21.74c6.12-5.51,13.47-8.27,22.05-8.27h115.13c8.57,0,15.92,2.97,22.05,8.88,6.12,5.92,9.19,13.38,9.19,22.35s-3.06,15.62-9.19,21.13c-6.12,5.51-13.47,8.27-22.05,8.27h-115.13Z"/>
    <path class="cls-2" d="m2653.66,213.38c22.05,0,41.64,2.35,58.79,7.04,17.15,4.7,30.52,11.23,40.11,19.6,9.59,8.37,14.39,18.07,14.39,29.09,0,6.95-2.05,13.38-6.12,19.29-4.09,5.92-10.21,8.88-18.37,8.88-6.12,0-11.13-.92-15-2.76-3.88-1.84-7.35-4.29-10.41-7.35s-7.04-5.82-11.94-8.27c-4.5-2.85-11.23-5-20.21-6.43-8.98-1.43-16.75-2.14-23.27-2.14-21.64,0-40.32,4.9-56.04,14.7-15.72,9.8-27.97,22.97-36.75,39.5-8.78,16.54-13.17,35.42-13.17,56.65s4.38,40.22,13.17,56.96c8.77,16.75,20.82,30.01,36.13,39.81,15.31,9.8,33.17,14.7,53.59,14.7,11.84,0,21.74-.92,29.7-2.76,7.96-1.84,14.59-4.18,19.9-7.04,6.53-3.67,11.94-7.44,16.23-11.33,4.29-3.88,10.31-5.82,18.07-5.82,8.98,0,15.82,2.76,20.52,8.27,4.69,5.51,7.04,12.35,7.04,20.52,0,8.99-5.42,17.66-16.23,26.03-10.82,8.37-25.21,15.21-43.17,20.52-17.97,5.3-37.97,7.96-60.02,7.96-31.44,0-58.9-7.35-82.37-22.05-23.48-14.7-41.64-34.7-54.5-60.02-12.86-25.31-19.29-53.89-19.29-85.74s6.74-60.93,20.21-86.04c13.47-25.11,32.15-45.01,56.04-59.71,23.88-14.7,51.54-22.05,82.98-22.05Z"/>
    <path class="cls-2" d="m3105.62,294.52c-14.29-25.11-33.68-44.91-58.18-59.4-24.49-14.49-52.05-21.74-82.67-21.74s-58.18,7.25-82.68,21.74c-24.5,14.49-44,34.29-58.49,59.4-14.49,25.11-21.74,54.2-21.74,87.27s7.25,61.55,21.74,86.66c14.49,25.1,33.99,44.81,58.49,59.09,24.5,14.3,52.06,21.44,82.68,21.44s58.18-7.14,82.67-21.44c24.5-14.28,43.89-33.99,58.18-59.09,14.29-25.11,21.44-53.99,21.44-86.66s-7.15-62.16-21.44-87.27Zm-53.28,144.84c-8.98,16.74-21.13,29.8-36.44,39.19-15.31,9.4-32.36,14.09-51.13,14.09s-35.94-4.69-51.45-14.09c-15.52-9.39-27.77-22.45-36.74-39.19-8.99-16.74-13.47-35.93-13.47-57.57s4.48-41.95,13.47-58.49c8.97-16.53,21.22-29.49,36.74-38.88,15.51-9.39,32.66-14.09,51.45-14.09s35.82,4.7,51.13,14.09c15.31,9.39,27.46,22.35,36.44,38.88,8.98,16.54,13.47,36.04,13.47,58.49s-4.49,40.83-13.47,57.57Z"/>
    <path class="cls-2" d="m3462.04,347.49v164.13c0,8.99-2.97,16.44-8.88,22.35-5.92,5.93-13.17,8.88-21.74,8.88-8.99,0-16.44-2.95-22.35-8.88-5.93-5.91-8.88-13.36-8.88-22.35v-163.51c0-14.7-2.05-27.87-6.13-39.5-4.09-11.64-11.02-20.92-20.82-27.87-9.8-6.94-23.68-10.41-41.64-10.41-16.75,0-31.45,3.47-44.1,10.41-12.66,6.95-22.56,16.23-29.7,27.87-7.15,11.63-10.72,24.8-10.72,39.5v163.51c0,8.99-2.96,16.44-8.88,22.35-5.92,5.93-13.16,8.88-21.74,8.88s-16.44-2.95-22.35-8.88c-5.92-5.91-8.88-13.36-8.88-22.35V251.96c0-8.98,2.96-16.43,8.88-22.36,5.91-5.91,13.37-8.88,22.35-8.88s15.82,2.97,21.74,8.88c5.92,5.93,8.88,13.38,8.88,22.36v18.59c1.24-1.8,2.57-3.61,3.98-5.43,7.14-9.18,15.82-17.76,26.03-25.72,10.2-7.96,21.64-14.28,34.29-18.98,12.66-4.69,26.13-7.04,40.42-7.04,28.99,0,51.45,6.02,67.37,18.06,15.92,12.05,27.04,28.17,33.38,48.38,6.32,20.21,9.49,42.78,9.49,67.67Z"/>
    <path class="cls-2" d="m3812.95,347.49v164.13c0,8.99-2.97,16.44-8.88,22.35-5.92,5.93-13.17,8.88-21.74,8.88-8.99,0-16.44-2.95-22.35-8.88-5.93-5.91-8.88-13.36-8.88-22.35v-163.51c0-14.7-2.05-27.87-6.13-39.5-4.08-11.64-11.02-20.92-20.82-27.87-9.8-6.94-23.68-10.41-41.64-10.41-16.75,0-31.45,3.47-44.1,10.41-12.66,6.95-22.56,16.23-29.7,27.87-7.15,11.63-10.72,24.8-10.72,39.5v163.51c0,8.99-2.96,16.44-8.88,22.35-5.92,5.93-13.16,8.88-21.74,8.88s-16.44-2.95-22.35-8.88c-5.92-5.91-8.88-13.36-8.88-22.35V251.96c0-8.98,2.96-16.43,8.88-22.36,5.91-5.91,13.37-8.88,22.35-8.88s15.82,2.97,21.74,8.88c5.92,5.93,8.88,13.38,8.88,22.36v18.6c1.24-1.81,2.57-3.62,3.98-5.44,7.14-9.18,15.82-17.76,26.03-25.72,10.2-7.96,21.64-14.28,34.3-18.98,12.65-4.69,26.12-7.04,40.41-7.04,28.99,0,51.45,6.02,67.37,18.06,15.92,12.05,27.04,28.17,33.38,48.38,6.32,20.21,9.49,42.78,9.49,67.67Z"/>
    <path class="cls-2" d="m4162.02,307.99c-8.17-18.98-19.29-35.52-33.37-49.6-14.09-14.09-30.12-25.11-48.08-33.07-17.97-7.96-36.95-11.94-56.95-11.94-26.14,0-50.83,6.84-74.1,20.51-23.28,13.68-42.16,33.28-56.65,58.79-14.5,25.52-21.74,56.25-21.74,92.17,0,31.85,6.83,60.12,20.51,84.82,13.68,24.71,32.97,44.09,57.88,58.18,24.89,14.08,54.29,21.13,88.18,21.13,21.23,0,41.54-4.09,60.94-12.25,19.39-8.16,34.6-17.55,45.62-28.17,8.98-7.35,13.48-15.51,13.48-24.5,0-6.94-2.45-12.95-7.35-18.06-4.9-5.1-11.24-7.66-18.99-7.66-5.72,0-11.63,1.84-17.76,5.51-4.9,4.09-10.71,8.37-17.45,12.86-6.74,4.5-14.91,8.27-24.5,11.33-9.6,3.06-21.95,4.6-37.05,4.6-19.19,0-36.74-4.6-52.67-13.78-15.92-9.19-28.58-22.15-37.97-38.89-6.92-12.33-11.28-26.22-13.1-41.65h212.75c8.16,0,15.31-2.65,21.43-7.96,6.13-5.3,9.39-12.04,9.8-20.21-.41-22.45-4.69-43.17-12.86-62.16Zm-52.66,38.28h-176.49c1.2-6.3,2.77-12.12,4.7-17.46,5.1-14.08,12.04-25.41,20.83-33.98,8.77-8.58,18.77-14.8,30-18.68s22.97-5.82,35.22-5.82c13.87,0,27.04,3.06,39.5,9.19,12.45,6.12,22.96,14.49,31.54,25.1,8.57,10.63,13.47,23.08,14.7,37.36v4.29Z"/>
    <path class="cls-2" d="m4492.72,494.47c0,8.99-5.42,17.67-16.23,26.03-10.82,8.37-25.22,15.21-43.18,20.52-17.97,5.3-37.97,7.96-60.01,7.96-31.45,0-58.9-7.35-82.37-22.05-23.48-14.7-41.65-34.7-54.51-60.02-12.86-25.31-19.29-53.89-19.29-85.73s6.74-60.94,20.21-86.05c13.47-25.11,32.15-45.01,56.04-59.71,23.88-14.7,51.54-22.04,82.98-22.04,22.05,0,41.64,2.35,58.79,7.04,17.15,4.7,30.52,11.23,40.11,19.6,9.59,8.37,14.4,18.06,14.4,29.08,0,6.95-2.05,13.38-6.13,19.3-4.08,5.92-10.21,8.88-18.37,8.88-6.12,0-11.13-.92-15.01-2.76-3.88-1.84-7.34-4.29-10.41-7.35-3.06-3.06-7.04-5.82-11.94-8.27-4.5-2.85-11.23-4.99-20.21-6.43-8.98-1.42-16.74-2.14-23.27-2.14-21.65,0-40.32,4.9-56.04,14.7-15.72,9.8-27.97,22.96-36.74,39.5-8.79,16.53-13.17,35.42-13.17,56.65s4.38,40.21,13.17,56.95c8.77,16.75,20.82,30.01,36.13,39.81,15.31,9.8,33.17,14.7,53.59,14.7,11.83,0,21.74-.92,29.7-2.76,7.96-1.84,14.59-4.18,19.9-7.04,6.53-3.68,11.95-7.45,16.23-11.33,4.29-3.88,10.31-5.82,18.07-5.82,8.97,0,15.82,2.76,20.51,8.27,4.69,5.51,7.05,12.35,7.05,20.51Z"/>
    <path class="cls-2" d="m4696.65,491.41c4.08,4.5,6.12,10.62,6.12,18.37,0,9.8-5.31,17.76-15.92,23.89-10.62,6.12-22.05,9.18-34.29,9.18-6.95,0-15.11-.61-24.5-1.83-9.4-1.23-18.48-4.29-27.25-9.19-8.79-4.9-16.14-12.76-22.05-23.58-5.92-10.81-8.88-26.03-8.88-45.62v-181.28h-33.07c-8.17,0-15-2.75-20.52-8.26-5.51-5.52-8.26-12.35-8.26-20.52s2.75-14.9,8.26-20.21c5.52-5.3,12.35-7.96,20.52-7.96h33.07v-48.38c0-8.98,3.06-16.43,9.19-22.35,6.12-5.92,13.47-8.89,22.04-8.89s16.33,2.97,22.05,8.89c5.71,5.92,8.57,13.37,8.57,22.35v48.38h49c8.16,0,15,2.75,20.51,8.27,5.51,5.51,8.27,12.35,8.27,20.51s-2.76,14.91-8.27,20.21c-5.51,5.31-12.35,7.96-20.51,7.96h-49v178.83c0,7.35,1.23,13.27,3.68,17.76,2.45,4.5,5.82,7.56,10.1,9.18,4.29,1.64,8.67,2.45,13.17,2.45s8.47-.81,11.94-2.45c3.47-1.62,7.66-2.45,12.56-2.45s9.38,2.25,13.47,6.74Z"/>
  </g>
</svg>