<svg xmlns="http://www.w3.org/2000/svg" version="1.1" viewBox="0 0 40 40"><defs><style>     .cls-1 {     fill-rule: evenodd;     } </style> </defs><g><g id="Layer_1">     <path d="M25.2,21.7c0,2.9-2.3,5.2-5.2,5.2s-5.2-2.3-5.2-5.2,2.3-5.2,5.2-5.2,5.2,2.3,5.2,5.2Z"/>     <path class="cls-1" d="M3,19.7v-1.7c0-2.6,0-3.9.6-4.9.2-.3.5-.6.7-.8.9-.8,2.2-.9,4.7-1.3l3.7-.5,1.9-3c.6-1,.9-1.4,1.3-1.7.1-.1.3-.2.5-.3.5-.2,1.1-.2,2.2-.2h2.6c1.1,0,1.7,0,2.2.2.2,0,.3.2.5.3.4.3.7.8,1.3,1.7l1.9,3,3.7.5c2.6.3,3.9.5,4.7,1.3.3.2.5.5.7.8.6,1,.6,2.3.6,4.9v9c0,2.9,0,4.4-.7,5.4-.2.3-.5.6-.9.9-1,.7-2.5.7-5.4.7H10.1c-2.9,0-4.4,0-5.4-.7-.3-.2-.6-.5-.9-.9-.7-1-.7-2.5-.7-5.4v-3.4M34.4,16.2c0,.9-.7,1.6-1.6,1.6s-1.6-.7-1.6-1.6.7-1.6,1.6-1.6,1.6.7,1.6,1.6ZM29.1,21.7c0,5-4.1,9.1-9.1,9.1s-9.1-4.1-9.1-9.1,4.1-9.1,9.1-9.1,9.1,4.1,9.1,9.1Z"/>     <path d="M5.6,7.7c0-1,0-1.5.2-1.8,0-.1.2-.2.3-.3.3-.2.8-.2,1.8-.2h.5c1,0,1.5,0,1.8.2.1,0,.2.2.3.3.2.3.2.8.2,1.8v.5l-5.2.7v-1.2Z"/> </g> </g></svg>