<svg xmlns="http://www.w3.org/2000/svg" viewBox="0 0 40 40" fill="none" x="0px" y="0px"><path d="M27 14.5C27 16.7091 25.2091 18.5 23 18.5C20.7909 18.5 19 16.7091 19 14.5C19 12.2909 20.7909 10.5 23 10.5C25.2091 10.5 27 12.2909 27 14.5Z" fill="black"/><path fill-rule="evenodd" clip-rule="evenodd" d="M10 11.7278C10 9.73527 10 8.739 10.4829 7.9943C10.6397 7.75254 10.8305 7.53462 11.0494 7.34727C11.7237 6.77018 12.7113 6.63851 14.6863 6.37518L17.5 6.00004L18.9425 3.69202C19.4009 2.95861 19.6301 2.5919 19.9672 2.35764C20.0781 2.28056 20.1965 2.21491 20.3207 2.1617C20.698 2 21.1304 2 21.9953 2H24.0047C24.8696 2 25.302 2 25.6793 2.1617C25.8035 2.21491 25.9219 2.28056 26.0328 2.35764C26.3699 2.5919 26.5991 2.9586 27.0575 3.69199L28.5 6.00004L31.3137 6.37518C33.2887 6.63851 34.2763 6.77018 34.9506 7.34727C35.1695 7.53462 35.3603 7.75254 35.5171 7.9943C36 8.739 36 9.73527 36 11.7278V18.6C36 20.8499 36 21.9748 35.4271 22.7634C35.242 23.0181 35.018 23.242 34.7634 23.4271C33.9748 24 32.8498 24 30.6 24H15.4C13.1502 24 12.0252 24 11.2366 23.4271C10.982 23.242 10.758 23.0181 10.5729 22.7634C10 21.9748 10 20.8499 10 18.6V16H8V21.6C8 23.8498 8 24.9748 8.57295 25.7634C8.75799 26.018 8.98196 26.242 9.23664 26.4271C10.0252 27 11.1502 27 13.4 27H28V31.2C28 31.9499 28 32.3249 27.809 32.5878C27.7473 32.6727 27.6727 32.7473 27.5878 32.809C27.3249 33 26.9499 33 26.2 33H19.8C19.0501 33 18.6751 33 18.4122 32.809C18.3273 32.7473 18.2527 32.6727 18.191 32.5878C18 32.3249 18 31.9499 18 31.2V30H15.8C11.3003 30 9.05048 30 7.47329 28.8541C6.96392 28.484 6.51598 28.0361 6.1459 27.5267C5.02575 25.985 5.00058 23.8005 5.00001 19.5H3.8C3.05005 19.5 2.67508 19.5 2.41221 19.309C2.32732 19.2473 2.25266 19.1727 2.19098 19.0878C2 18.8249 2 18.4499 2 17.7V11.3C2 10.5501 2 10.1751 2.19098 9.91221C2.25266 9.82732 2.32732 9.75266 2.41221 9.69098C2.67508 9.5 3.05005 9.5 3.8 9.5H8V13H10V11.7278ZM34 10.25C34 10.9404 33.4404 11.5 32.75 11.5C32.0596 11.5 31.5 10.9404 31.5 10.25C31.5 9.55964 32.0596 9 32.75 9C33.4404 9 34 9.55964 34 10.25ZM30 14.5C30 18.366 26.866 21.5 23 21.5C19.134 21.5 16 18.366 16 14.5C16 10.634 19.134 7.5 23 7.5C26.866 7.5 30 10.634 30 14.5Z" fill="black"/><path d="M12 3.8C12 3.05005 12 2.67508 12.191 2.41221C12.2527 2.32732 12.3273 2.25266 12.4122 2.19098C12.6751 2 13.0501 2 13.8 2H14.2C14.9499 2 15.3249 2 15.5878 2.19098C15.6727 2.25266 15.7473 2.32732 15.809 2.41221C16 2.67508 16 3.05005 16 3.8V4.2L12 4.75V3.8Z" fill="black"/><path d="M20.5 40L21 35H25L25.5 40H20.5Z" fill="black"/></svg>