<svg xmlns="http://www.w3.org/2000/svg" version="1.1" viewBox="0 0 100 100"><path d="m24.086 53.832c-3.4023 0-6.1719 2.7695-6.1719 6.1758v25.078c0 3.4062 2.7695 6.1758 6.1719 6.1758 3.4062 0 6.1758-2.7695 6.1758-6.1758v-25.078c0-3.4062-2.7695-6.1758-6.1758-6.1758z"/><path d="m11.027 66.223v12.652c0 3.0781 2.3359 5.5938 5.3203 5.9375v-24.527c-2.9883 0.34375-5.3203 2.8594-5.3203 5.9375z"/><path d="m23.656 23.387c-0.76172-0.38281-1.4219-0.92969-1.8672-1.6289-0.42187-0.58203-0.67187-1.2969-0.77344-2.0469-11.039 9.2695-17.262 24.453-17.109 42.004-0.039062 6.6953 3.2578 10.902 5.5586 13.027v-7.6914c-0.65234-1.5742-1-3.3594-1.0156-5.3203 0.15625-16.637 5.5547-30.168 15.203-38.34z"/><path d="m78.98 19.711c-0.10547 0.75781-0.35938 1.4766-0.79297 2.0859-0.42969 0.67578-1.082 1.2148-1.8438 1.5938 9.6523 8.1719 15.047 21.703 15.203 38.328-0.015625 1.9727-0.36328 3.7578-1.0156 5.332v7.6914c2.3008-2.1211 5.5938-6.3281 5.5586-13.012 0.15625-17.562-6.0703-32.746-17.109-42.016z"/><path d="m83.652 60.285v24.527c2.9883-0.34766 5.3203-2.8594 5.3203-5.9375v-12.652c0-3.0781-2.3359-5.5938-5.3203-5.9375z"/><path d="m75.914 53.832c-3.4062 0-6.1758 2.7695-6.1758 6.1758v25.078c0 3.4062 2.7695 6.1758 6.1758 6.1758s6.1758-2.7695 6.1758-6.1758v-25.078c0-3.4062-2.7695-6.1758-6.1758-6.1758z"/><path d="m74.77 22.312c0.89844-0.17969 1.6719-0.69141 2.125-1.3945 0.51172-0.71875 0.69922-1.625 0.53516-2.5273-0.16797-0.92578-0.69141-1.7383-1.4258-2.2305-0.003906 0-0.003906-0.003906-0.007812-0.003906-7.2383-4.918-15.965-7.4141-25.941-7.4141h-0.10547c-9.9766 0-18.703 2.4961-25.941 7.4141-0.74609 0.49609-1.2656 1.3086-1.4336 2.2344-0.16406 0.90234 0.019531 1.8125 0.51172 2.4922 0.47656 0.74219 1.25 1.25 2.1484 1.4297 0.92969 0.1875 1.875 0.003906 2.6016-0.5 6.1094-4.1328 13.566-6.2305 22.164-6.2422 8.6016 0.011719 16.059 2.1094 22.16 6.2383 0.73828 0.50781 1.6875 0.6875 2.6094 0.50391z"/></svg>