<svg xmlns="http://www.w3.org/2000/svg" viewBox="0 0 32 32" x="0px" y="0px"><title>Tripod</title><g><path d="M17,18H15a2,2,0,0,1-2-2V12a2,2,0,0,1,2-2H17a2,2,0,0,1,2,2V16A2,2,0,0,1,17,18Zm0-6-2,0,0,4,2,0Zm0,4Z"/><path d="M19,8H13a1,1,0,0,1-1-1V3a1,1,0,0,1,1-1h6a1,1,0,0,1,1,1V7A1,1,0,0,1,19,8ZM14,6h4V4H14Z"/><path d="M16,12a1,1,0,0,1-1-1V7a1,1,0,0,1,2,0v4A1,1,0,0,1,16,12Z"/><path d="M7,30a.9.9,0,0,1-.5-.14,1,1,0,0,1-.36-1.36l7-12a1,1,0,1,1,1.72,1l-7,12A1,1,0,0,1,7,30Z"/><path d="M25,30a1,1,0,0,1-.86-.5l-7-12a1,1,0,1,1,1.72-1l7,12a1,1,0,0,1-.36,1.36A.9.9,0,0,1,25,30Z"/><path d="M16,29.09a1,1,0,0,1-1-1V17a1,1,0,0,1,2,0V28.09A1,1,0,0,1,16,29.09Z"/><path d="M8.46,11.59a1,1,0,0,1-.69-1.73l4.21-4a1,1,0,1,1,1.38,1.45l-4.21,4A1,1,0,0,1,8.46,11.59Z"/><path d="M5.82,16a1,1,0,0,1-.71-.29L3.33,13.93a1,1,0,0,1,0-1.42l3.05-3a1,1,0,0,1,1.41,0l1.78,1.78a1,1,0,0,1,0,1.42L6.52,15.71A1,1,0,0,1,5.82,16Zm-.37-2.78.37.37L7.45,12l-.36-.37Z"/></g><text x="0" y="47" fill="#000000" font-size="5px" font-weight="bold" font-family="'Helvetica Neue', Helvetica, Arial-Unicode, Arial, Sans-serif">Created by salsabila salma</text><text x="0" y="52" fill="#000000" font-size="5px" font-weight="bold" font-family="'Helvetica Neue', Helvetica, Arial-Unicode, Arial, Sans-serif">from the Noun Project</text></svg>