<svg xmlns="http://www.w3.org/2000/svg" version="1.1" viewBox="-5.0 -10.0 110.0 110.0">
 <g>
  <path d="m42.988 42.637v10.934h4.6758v-10.934c-1.4961 0.62891-3.1797 0.62891-4.6758 0z"/>
  <path d="m42.988 79.164c0.003907 1.2891 1.0508 2.332 2.3398 2.332s2.3359-1.043 2.3359-2.332v-13.441h-4.6758z"/>
  <path d="m24.461 75.555c-0.33203 1.2461 0.40625 2.5273 1.6523 2.8633h0.003907c1.2461 0.33203 2.5273-0.40625 2.8594-1.6523l3.4805-12.98-4.5195-1.2109z"/>
  <path d="m36.133 41.043c-0.77344-0.20703-1.5039-0.55859-2.1445-1.0391l-2.9023 10.832 4.5156 1.2109 2.9023-10.824c-0.79688 0.089844-1.5977 0.027344-2.3711-0.17969z"/>
  <path d="m63.324 58.539-1.2109-4.5156h0.003907c-0.097657-0.35938-0.33203-0.66406-0.65625-0.85156-0.32031-0.18359-0.70313-0.23438-1.0625-0.14062l-4.9648 1.332h-0.003906c-0.74609 0.19922-1.1914 0.96875-0.98828 1.7188l0.21484 0.79688-5.3516 1.2305v-0.79688l-0.003907-0.003906c0-0.37109-0.14844-0.72656-0.41016-0.98828-0.26562-0.26562-0.62109-0.41406-0.99219-0.41406h-5.1406c-0.375 0-0.73047 0.14844-0.99219 0.41406-0.26562 0.26172-0.41016 0.61719-0.41016 0.98828v0.79688l-5.3555-1.2305 0.21484-0.79688v0.003906c0.19922-0.75-0.24609-1.5195-0.99219-1.7188l-4.9648-1.332c-0.35937-0.09375-0.74219-0.042969-1.0664 0.14062-0.32031 0.1875-0.55859 0.49219-0.65234 0.85156l-1.2109 4.5156c-0.19922 0.75 0.24219 1.5156 0.99219 1.7188l4.9648 1.332v-0.003906c0.35938 0.097656 0.74219 0.046874 1.0664-0.13672 0.32031-0.1875 0.55469-0.49219 0.65234-0.85156l0.21875-0.82031 5.9609 1.3711h0.17188v0.83594c0 0.77344 0.625 1.4023 1.4023 1.4023h5.1406c0.77344 0 1.4023-0.62891 1.4023-1.4023v-0.83594h0.16797l5.9609-1.3672 0.21875 0.81641c0.097656 0.35938 0.33203 0.66406 0.65625 0.85156 0.32031 0.18359 0.70312 0.23438 1.0625 0.13672l4.9648-1.332v0.003906c0.75-0.20312 1.1953-0.96875 0.99219-1.7188z"/>
  <path d="m54.527 41.043c-0.77344 0.20703-1.582 0.26953-2.375 0.17969l2.9023 10.824 4.5156-1.2109-2.9023-10.832c-0.64453 0.48047-1.3672 0.83203-2.1406 1.0391z"/>
  <path d="m62.715 62.574-4.5195 1.2109 3.4805 12.98c0.33594 1.2461 1.6172 1.9844 2.8633 1.6523 1.2461-0.33594 1.9883-1.6172 1.6523-2.8633z"/>
  <path d="m32.25 33.414h1.8125l-0.13672 0.50781v-0.003906c-0.27344 1.0195-0.12891 2.1055 0.39453 3.0156 0.52734 0.91406 1.3984 1.5781 2.4141 1.8516 1.0195 0.27344 2.1016 0.12891 3.0156-0.39453 0.91406-0.52734 1.5781-1.3984 1.8516-2.4141l0.042969-0.16797v1.2852c0 2.0312 1.6484 3.6797 3.6836 3.6797 2.0312 0 3.6797-1.6484 3.6797-3.6797v-1.2852l0.042969 0.16797h0.003907c0.56641 2.1172 2.7461 3.3789 4.8633 2.8086 2.1211-0.56641 3.3789-2.7461 2.8086-4.8672l-0.13672-0.50781h1.8125l0.003906 0.003906c1.4883 0 2.6953-1.2109 2.6953-2.6992 0-1.4883-1.207-2.6953-2.6953-2.6953h-26.156c-1.4922 0-2.6992 1.207-2.6992 2.6953 0 1.4883 1.207 2.6992 2.6992 2.6992z"/>
  <path d="m36.035 25.883h18.586c0.51562-0.003906 0.93359-0.42187 0.93359-0.9375v-1.7305c0-0.51562-0.41797-0.93359-0.93359-0.93359h-2.3984v-2.8477c0-0.51562-0.41797-0.93359-0.9375-0.93359h-11.918c-0.51563 0-0.93359 0.41797-0.93359 0.93359v2.8477h-2.3984c-0.25 0-0.48828 0.097656-0.66016 0.27344-0.17578 0.17578-0.27734 0.41406-0.27734 0.66016v1.7305c0 0.51563 0.42188 0.9375 0.9375 0.9375z"/>
  <path d="m74.934 43.34-4.0039-4.0039c-0.17578-0.17578-0.41406-0.27344-0.66016-0.27344-0.24609 0-0.48438 0.097656-0.66016 0.27344l-2.5391-2.5391h-8.1523l0.003906 0.003906c-0.11328 0.35156-0.25391 0.69141-0.42188 1.0234l0.47656 1.7812h6.9375l1.7148 1.7148-0.003906 0.003907c-0.17578 0.17578-0.27344 0.41016-0.27344 0.66016 0 0.24609 0.097657 0.48438 0.27344 0.65625l4.0078 4.0078h-0.003906c0.91406 0.91016 2.3945 0.91016 3.3086-0.003907 0.91016-0.91406 0.91016-2.3945-0.003906-3.3047z"/>
 </g></svg>