<svg xmlns="http://www.w3.org/2000/svg" viewBox="0 0 24 24" x="0px" y="0px"><defs><style>
      .cls-1 {
        stroke-width: 0px;
      }
    </style></defs><path class="cls-1" d="M12,22.75c-4,0-7.25-3.25-7.25-7.25s3.25-7.25,7.25-7.25,7.25,3.25,7.25,7.25-3.25,7.25-7.25,7.25ZM12,9.75c-3.17,0-5.75,2.58-5.75,5.75s2.58,5.75,5.75,5.75,5.75-2.58,5.75-5.75-2.58-5.75-5.75-5.75Z"/><path class="cls-1" d="M12,22.75c-.41,0-.75-.34-.75-.75s.34-.75.75-.75c4,0,7.25-3.25,7.25-7.25v-5.5c0-.41.34-.75.75-.75s.75.34.75.75v5.5c0,4.82-3.93,8.75-8.75,8.75Z"/><path class="cls-1" d="M12,22.75c-4.82,0-8.75-3.93-8.75-8.75v-5.5c0-.41.34-.75.75-.75s.75.34.75.75v5.5c0,4,3.25,7.25,7.25,7.25.41,0,.75.34.75.75s-.34.75-.75.75Z"/><path class="cls-1" d="M20.5,9.25h-1c-1.24,0-2.25-1.01-2.25-2.25v-2.5c0-.41.34-.75.75-.75h4c.41,0,.75.34.75.75v2.5c0,1.24-1.01,2.25-2.25,2.25ZM18.75,5.25v1.75c0,.41.34.75.75.75h1c.41,0,.75-.34.75-.75v-1.75h-2.5Z"/><path class="cls-1" d="M21.5,5.25h-3c-.41,0-.75-.34-.75-.75v-2c0-.69.56-1.25,1.25-1.25h2c.69,0,1.25.56,1.25,1.25v2c0,.41-.34.75-.75.75ZM19.25,3.75h1.5v-1h-1.5v1ZM21,2.75h0,0Z"/><path class="cls-1" d="M4.5,9.25h-1c-1.24,0-2.25-1.01-2.25-2.25v-2.5c0-.41.34-.75.75-.75h4c.41,0,.75.34.75.75v2.5c0,1.24-1.01,2.25-2.25,2.25ZM2.75,5.25v1.75c0,.41.34.75.75.75h1c.41,0,.75-.34.75-.75v-1.75h-2.5Z"/><path class="cls-1" d="M5.5,5.25h-3c-.41,0-.75-.34-.75-.75v-2c0-.69.56-1.25,1.25-1.25h2c.69,0,1.25.56,1.25,1.25v2c0,.41-.34.75-.75.75ZM3.25,3.75h1.5v-1h-1.5v1ZM5,2.75h0,0Z"/></svg>