<?xml version="1.0" encoding="UTF-8"?><svg id="Ebene_1" xmlns="http://www.w3.org/2000/svg" viewBox="0 0 801.14 935.44"><defs><style>.cls-1{stroke-width:0px;}</style></defs><path class="cls-1" d="m572.17,730.58v-119.94c0-39.05-31.76-70.81-70.77-70.81s-70.81,31.76-70.81,70.81v253.91c0,27.29-22.23,49.5-49.5,49.5s-49.46-22.23-49.46-49.5v-119.96c28.66-2.25,51.37-26.27,51.37-55.54v-64.8c0-12.91-6.66-24.29-16.67-30.91v-42.82c0-5.87-4.79-10.66-10.66-10.66h-69.34c-5.87,0-10.66,4.79-10.66,10.66v42.9c-10.01,6.66-16.67,18.01-16.67,30.91v64.8c0,29.25,22.65,53.29,51.37,55.54v119.96c0,39.05,31.76,70.81,70.77,70.81s70.81-31.76,70.81-70.81v-253.99c0-27.29,22.23-49.5,49.5-49.5s49.46,22.23,49.46,49.5v119.96c-28.66,2.25-51.37,26.27-51.37,55.54v64.8c0,12.91,6.66,24.29,16.67,30.91v42.9c0,5.87,4.79,10.66,10.66,10.66h69.34c5.87,0,10.66-4.79,10.66-10.66v-42.9c10.01-6.66,16.67-18.01,16.67-30.91v-64.8c0-29.25-22.65-53.29-51.37-55.54v-.02Zm-275.22-169.4h48.02v23.81h-48.02v-23.81Zm-16.67,127.96v-64.8c0-8.68,7.08-15.78,15.78-15.78h49.87c8.68,0,15.78,7.08,15.78,15.78v64.8c0,18.96-15.44,34.43-34.43,34.43h-12.53c-18.96,0-34.43-15.44-34.43-34.43h-.04Zm240.55,96.98c0-18.96,15.44-34.43,34.43-34.43h12.53c18.96,0,34.43,15.44,34.43,34.43v64.8c0,8.68-7.08,15.78-15.78,15.78h-49.87c-8.68,0-15.78-7.08-15.78-15.78v-64.8h.04Zm64.7,127.96h-48.02v-23.81h48.02v23.81Z"/><path class="cls-1" d="m601.72,0c-99.11,0-199.42,19.19-199.42,55.82v65.79c0,26.44,52.2,43.81,118.44,51.44v250.56c0,.68.15,1.36.15,1.96-.08.53-.23,1.06-.15,1.66.08.45.3.83.38,1.28.98,5.59,3.47,10.73,7.4,14.96l28.78,30.74c5.51,5.82,13.22,9.22,21.23,9.22h45.78c7.93,0,15.64-3.32,21.08-9.06l29.31-30.82c5.14-5.44,8.01-12.54,8.01-20.02v-250.48c66.32-7.63,118.44-25,118.44-51.44V55.82c0-36.64-100.31-55.82-199.42-55.82Zm0,15.11c112.55,0,184.31,24.1,184.31,40.71s-71.76,40.79-184.31,40.79-184.31-24.1-184.31-40.71,71.76-40.79,184.31-40.79Zm-65.87,337.96c36.71-6.27,96.01-29.46,131.74-61.64v58.32c-29.08,33.61-92.38,60.51-131.74,67.83v-64.51Zm131.74-83.17c-29.08,33.61-92.38,60.51-131.74,67.83v-64.43c36.71-6.27,96.01-29.46,131.74-61.64v58.24Zm-3.85,163.24l-29.31,30.82c-2.57,2.79-6.27,4.38-10.12,4.38h-45.78c-3.85,0-7.55-1.59-10.2-4.46l-28.78-30.74c-.23-.3-.45-.6-.68-.91,36.86-7.03,93.89-29.76,128.64-61.11v52.35c.08,3.63-1.28,7.1-3.78,9.67Zm3.85-243.01c-29.08,33.61-92.38,60.51-131.74,67.83v-83.39c21.23,1.89,43.59,2.87,65.87,2.87s44.64-.98,65.87-2.87v15.56Zm6.35-31.35h-144.43c-70.02-7.33-112.1-24.4-112.1-37.09v-43.06c31.65,21.83,108.32,33.09,184.31,33.09s152.74-11.33,184.39-33.09v43.06c-.08,12.61-42.07,29.69-112.17,37.09Z"/><path class="cls-1" d="m595.29,47.81l-52.2-19.64c-3.93-1.51-8.23.45-9.74,4.38-1.51,3.93.53,8.23,4.38,9.74l36.11,13.6,21.45,8.08,52.2,19.64c.91.3,1.81.45,2.64.45,3.02,0,5.97-1.89,7.1-4.91,1.51-3.93-.53-8.23-4.38-9.74l-36.11-13.6-21.45-8.01Z"/><path class="cls-1" d="m496.64,326.7c-4.15,0-7.55,3.4-7.55,7.55v34.37c0,4.15,3.4,7.55,7.55,7.55s7.55-3.4,7.55-7.55v-34.37c0-4.15-3.4-7.55-7.55-7.55Z"/><path class="cls-1" d="m496.64,201.76c-4.15,0-7.55,3.4-7.55,7.55v89.51c0,4.15,3.4,7.55,7.55,7.55s7.55-3.4,7.55-7.55v-89.51c0-4.15-3.4-7.55-7.55-7.55Z"/><path class="cls-1" d="m319.02,159.08c4.3,0,7.78-3.48,7.78-7.78v-77.81c0-4.3-3.48-7.78-7.78-7.78H70.03c-2.06,0-4.04.82-5.5,2.28L2.28,130.23c-1.46,1.46-2.28,3.44-2.28,5.5v46.69c0,4.3,3.48,7.78,7.78,7.78h7.78v46.69h-7.78c-4.3,0-7.78,3.48-7.78,7.78v248.99c0,4.3,3.48,7.78,7.78,7.78h311.24c4.3,0,7.78-3.48,7.78-7.78v-248.99c0-4.3-3.48-7.78-7.78-7.78h-7.78v-77.81h7.78Zm-15.56,93.37h7.78v233.43H15.56v-233.43h7.78c4.3,0,7.78-3.48,7.78-7.78v-62.25c0-4.3-3.48-7.78-7.78-7.78h-7.78v-35.68l57.69-57.69h237.99v62.25h-7.78c-4.3,0-7.78,3.48-7.78,7.78v93.37c0,4.3,3.48,7.78,7.78,7.78Zm-31.12-155.62H85.59c-4.3,0-7.78,3.48-7.78,7.78v23.34h-23.34c-4.3,0-7.78,3.48-7.78,7.78v77.81c0,4.3,3.48,7.78,7.78,7.78h31.12c4.3,0,7.78-3.48,7.78-7.78v-23.34h178.96c4.3,0,7.78-3.48,7.78-7.78v-77.81c0-4.3-3.48-7.78-7.78-7.78Zm-116.72,15.56h15.56v62.25h-15.56v-62.25Zm-15.56,62.25h-15.56v-62.25h15.56v62.25Zm46.69-62.25h15.56v62.25h-15.56v-62.25Zm31.12,0h15.56v62.25h-15.56v-62.25Zm-140.06,93.37h-15.56v-62.25h15.56v62.25Zm15.56-70.03v-23.34h15.56v62.25h-15.56v-38.91Zm171.18,38.91h-15.56v-62.25h15.56v62.25Zm7.78,62.25H54.47c-4.3,0-7.78,3.48-7.78,7.78v217.87c0,4.3,3.48,7.78,7.78,7.78h217.87c4.3,0,7.78-3.48,7.78-7.78v-217.87c0-4.3-3.48-7.78-7.78-7.78Zm-7.78,217.87H62.25v-202.31h202.31v202.31Zm-186.74-23.34c0-4.3,3.48-7.78,7.78-7.78h155.62c4.3,0,7.78,3.48,7.78,7.78s-3.48,7.78-7.78,7.78H85.59c-4.3,0-7.78-3.48-7.78-7.78Z"/></svg>