<svg xmlns="http://www.w3.org/2000/svg" xmlns:xlink="http://www.w3.org/1999/xlink" version="1.1" x="0px" y="0px" viewBox="0 0 64 64" style="enable-background:new 0 0 64 64;" xml:space="preserve"><g><path d="M16.8,15.5C12.6,15.5,9,23.1,9,32s3.5,16.5,7.7,16.5c4.2,0,7.7-7.6,7.7-16.5S21,15.5,16.8,15.5z M16.8,20.9   c-1.1,0-3.1,3.9-3.1,11.1c0,0.6-0.5,1-1,1c-0.6,0-1-0.5-1-1c0-6.5,1.8-13.1,5.2-13.1c0.6,0,1,0.5,1,1   C17.8,20.5,17.3,20.9,16.8,20.9z"/><path d="M29.5,32c0-11.9-5.7-21.5-12.8-21.5C9.7,10.5,4,20.1,4,32s5.7,21.5,12.8,21.5C23.8,53.5,29.5,43.9,29.5,32z M16.8,50.6   C11.3,50.6,7,42.4,7,32s4.3-18.6,9.8-18.6c5.5,0,9.8,8.2,9.8,18.6S22.3,50.6,16.8,50.6z"/><path d="M41.6,14.1c-0.2-0.2-0.4-0.4-0.6-0.6c0,0,0,0,0,0c-0.1-0.1-0.2-0.2-0.2-0.2c0,0,0,0,0-0.1c-1.8-1.8-4-2.8-6.3-2.8H22.8   c5.2,3.7,8.8,12,8.8,21.5S28,49.8,22.8,53.5h11.7c2.3,0,4.4-1,6.3-2.8c0,0,0,0,0-0.1c0.1-0.1,0.2-0.1,0.2-0.2c0,0,0,0,0,0   c0.2-0.2,0.4-0.4,0.6-0.6C45,46,47.2,39.4,47.2,32C47.2,24.6,45,18,41.6,14.1z"/><path d="M51.4,13.7h-7.5c3.3,4.3,5.5,10.9,5.5,18.3s-2.1,14-5.5,18.3h7.5C56,50.3,60,41.9,60,32S56,13.7,51.4,13.7z"/></g></svg>