<svg xmlns="http://www.w3.org/2000/svg" viewBox="0 0 60 60" x="0px" y="0px"><path d="M25,30a1,1,0,0,0,1-1V3a1,1,0,0,0-1-1H15a1,1,0,0,0-1,1V29a1,1,0,0,0,1,1ZM16,6a2,2,0,0,1,2-2h4a2,2,0,0,1,2,2V26a2,2,0,0,1-2,2H18a2,2,0,0,1-2-2Z"/><rect x="18" y="6" width="4" height="20"/><path d="M46,58l-4.3-7.706a3,3,0,0,1-1.266,1.327L43.617,58Z"/><rect x="36" y="52" width="2.001" height="6"/><path d="M33.571,51.621a3,3,0,0,1-1.266-1.327L27.989,58.02,30.382,58Z"/><path d="M39,12H36v8h3a3,3,0,0,0,3-3V15A3,3,0,0,0,39,12Z"/><rect x="34" y="44" width="6" height="6" rx="1"/><rect x="36" y="22" width="2" height="20"/><polygon points="28 4.808 28 27.192 34 20.612 34 11.388 28 4.808"/></svg>