<svg xmlns="http://www.w3.org/2000/svg" version="1.1" viewBox="0 0 100 100"><path d="m8.5742 17.367c-0.45312 1.0039-1.6367 1.4531-2.6406 1-1.0039-0.45313-1.4531-1.6367-1-2.6406 0.52734-1.1602 1.168-2.2891 1.918-3.3711 0.73047-1.0625 1.5664-2.0625 2.4961-2.9961 4.2383-4.2383 9.793-6.3594 15.344-6.3594 5.5508 0 11.105 2.1211 15.344 6.3594 1.625 1.625 2.9453 3.457 3.9531 5.4141 0.94922 1.8398 1.6172 3.7969 2.0039 5.7969l21.285 24.73c0.71484 0.83594 0.61719 2.0977-0.21875 2.8125-0.83594 0.71484-2.0977 0.61719-2.8125-0.21875l-20.238-23.512-19.637 19.637 35.945 30.938 14.629-14.629-4.9062-5.7031c-0.71484-0.83594-0.61719-2.0977 0.21875-2.8125 0.83594-0.71484 2.0977-0.61719 2.8125 0.21875l18.629 21.645c0.65625 0.76562 0.62891 1.8867-0.023438 2.6211l4.7305 4.7305c0.78125 0.78125 0.78125 2.0469 0 2.8281l-12.566 12.566c-0.78125 0.78125-2.0469 0.78125-2.8281 0l-4.7266-4.7266c-0.75 0.66406-1.875 0.67188-2.6328 0.019532l-53.105-45.707c-1.9961-0.38672-3.9492-1.0547-5.7891-2.0039-1.9453-1-3.7734-2.3203-5.4102-3.957-0.67188-0.66797-1.3047-1.3906-1.8945-2.1562-0.57031-0.74219-1.1016-1.543-1.5781-2.375-0.54688-0.95312-0.21875-2.1719 0.73438-2.7188s2.1719-0.21875 2.7188 0.73438c0.37109 0.64844 0.80859 1.2969 1.2969 1.9375 0.32422 0.42188 0.67969 0.84375 1.0625 1.2578l25.016-25.016c-3.3867-3.1328-7.7031-4.7031-12.02-4.7031-4.5312 0-9.0625 1.7305-12.516 5.1836-0.76562 0.76562-1.4492 1.5859-2.043 2.4414-0.60547 0.86328-1.125 1.7852-1.5586 2.7383zm54.785 60.203 2.3242 2.0039 13.879-13.879-2.0039-2.3281-14.203 14.203zm5.3633 4.6172 6.1328 5.2812 12.602-12.602-5.2773-6.1328-13.457 13.457zm20.129-3.0625-9.7344 9.7383 3.3125 3.3125 9.7383-9.7383-3.3125-3.3125zm-46.945-37.207c-0.48828 0.48828-0.73047 1.1328-0.73047 1.7812 0 0.65234 0.24219 1.2969 0.72656 1.7852l10.707 10.699c0.48828 0.48828 1.1328 0.73047 1.7773 0.73047 0.64844 0 1.2969-0.24219 1.7812-0.72656l0.078125-0.082031c0.43359-0.47266 0.65234-1.0859 0.65234-1.7031 0-0.64844-0.24219-1.293-0.73047-1.7773l-10.703-10.703c-0.48828-0.48828-1.1328-0.73047-1.7773-0.73047-0.64844 0-1.293 0.24219-1.7812 0.73047zm-2.8281-2.8281c1.2695-1.2695 2.9414-1.9062 4.6094-1.9062s3.3359 0.63281 4.6055 1.9023l10.703 10.703c1.2695 1.2695 1.9023 2.9414 1.9023 4.6055 0 1.6094-0.59766 3.2266-1.7891 4.4805l-0.11328 0.125c-1.2773 1.2695-2.9453 1.9062-4.6094 1.9062-1.6641 0-3.3359-0.63672-4.6055-1.9023l-10.703-10.703c-1.2695-1.2773-1.9023-2.9453-1.9023-4.6094 0-1.668 0.63672-3.3359 1.9023-4.6055zm2.8828-18.312c-0.32422-1.4336-0.83203-2.8398-1.5195-4.1758-0.32812-0.63672-0.69922-1.2578-1.1094-1.8594l-24.602 24.602c0.60156 0.41016 1.2227 0.78125 1.8594 1.1094 1.3359 0.6875 2.7422 1.1953 4.1758 1.5195zm-34.949 4.8711c0.046875 1.1016-0.80859 2.0312-1.9062 2.0781-1.1016 0.046876-2.0312-0.80859-2.0781-1.9062l-0.015625-0.30859c-0.046875-1.1016 0.80859-2.0312 1.9062-2.0781 1.1016-0.046875 2.0312 0.80859 2.0781 1.9062z"/></svg>