<svg xmlns="http://www.w3.org/2000/svg" version="1.1" viewBox="-5.0 -10.0 110.0 110.0"><path d="m77 56c-2.3438-0.003906-4.668 0.38281-6.8828 1.1523-3.0547-4.2773-3.0547-10.027 0-14.305 6.0273 2.082 12.672 1.3164 18.062-2.0898 5.3906-3.4023 8.9375-9.0742 9.6445-15.41 0.70703-6.3359-1.5078-12.648-6.0156-17.156-4.5078-4.5078-10.82-6.7227-17.156-6.0156-6.3359 0.70703-12.008 4.2539-15.41 9.6445-3.4062 5.3906-4.1719 12.035-2.0898 18.062-4.2773 3.0547-10.027 3.0547-14.305 0 2.082-6.0273 1.3164-12.672-2.0898-18.062-3.4023-5.3906-9.0742-8.9375-15.41-9.6445-6.3359-0.70703-12.648 1.5078-17.156 6.0156-4.5078 4.5078-6.7227 10.82-6.0156 17.156 0.70703 6.3359 4.2539 12.008 9.6445 15.41 5.3906 3.4062 12.035 4.1719 18.062 2.0898 3.0547 4.2773 3.0547 10.027 0 14.305-6.0273-2.082-12.672-1.3164-18.062 2.0898-5.3906 3.4023-8.9375 9.0742-9.6445 15.41-0.70703 6.3359 1.5078 12.648 6.0156 17.156 4.5078 4.5078 10.82 6.7227 17.156 6.0156 6.3359-0.70703 12.008-4.2539 15.41-9.6445 3.4062-5.3906 4.1719-12.035 2.0898-18.062 4.2773-3.0547 10.027-3.0547 14.305 0-1.957 5.6445-1.418 11.859 1.4844 17.082 2.9023 5.2227 7.8906 8.9609 13.719 10.281 5.8281 1.3203 11.941 0.09375 16.809-3.3672 4.8711-3.4648 8.0352-8.8398 8.6992-14.777 0.66406-5.9375-1.2305-11.879-5.2148-16.332-3.9805-4.4531-9.6719-7.0039-15.648-7.0039zm8.2656 8.4922-4.0234 4.0234-6.3672-6.3672c0.70312-0.097657 1.4141-0.14844 2.125-0.14844 2.9414-0.003906 5.8164 0.86328 8.2656 2.4922zm-10.391-26.641 6.3672-6.3672 4.0234 4.0234c-2.4492 1.6289-5.3242 2.4961-8.2656 2.4922-0.71094 0-1.4219-0.050781-2.125-0.14844zm17.125-14.852c0.003906 2.9414-0.86328 5.8164-2.4922 8.2656l-4.3867-4.3867 0.003906 0.003906c1.6328-3.4414 0.92578-7.543-1.7656-10.234-2.6953-2.6953-6.793-3.4023-10.234-1.7656l-4.3867-4.3867c3.0273-2.0039 6.6758-2.8398 10.273-2.3516 3.5977 0.48438 6.8945 2.2578 9.2852 4.9883 2.3867 2.7344 3.7031 6.2383 3.7031 9.8672zm-27.508-8.2656 4.0234 4.0234-6.3672 6.3672c-0.097657-0.70312-0.14844-1.4141-0.14844-2.125-0.003906-2.9414 0.86328-5.8164 2.4922-8.2656zm-26.641 10.391-6.3672-6.3672 4.0234-4.0234c1.6289 2.4492 2.4961 5.3242 2.4922 8.2656 0 0.71094-0.050781 1.4219-0.14844 2.125zm-14.852-17.125c2.9414-0.003906 5.8164 0.86328 8.2656 2.4922l-4.3867 4.3867c-3.4414-1.6445-7.5469-0.9375-10.242 1.7578-2.6992 2.6992-3.4023 6.8008-1.7578 10.242l-4.3867 4.3867c-2.0039-3.0273-2.8398-6.6797-2.3555-10.277 0.48438-3.5977 2.2578-6.8945 4.9922-9.2852s6.2422-3.7031 9.8711-3.7031zm-8.2656 27.508 4.0234-4.0234 6.3672 6.3672c-0.70312 0.097657-1.4141 0.14844-2.125 0.14844-2.9414 0.003906-5.8164-0.86328-8.2656-2.4922zm10.391 26.641-6.3672 6.3672-4.0234-4.0234c2.4492-1.6289 5.3242-2.4961 8.2656-2.4922 0.71094 0 1.4219 0.050781 2.125 0.14844zm-17.125 14.852c-0.003906-2.9414 0.86328-5.8164 2.4922-8.2656l4.3867 4.3867-0.003906-0.003906c-1.6367 3.4453-0.92969 7.5469 1.7656 10.242 2.6992 2.6953 6.7969 3.3984 10.242 1.7578l4.3867 4.3867h-0.003906c-3.0273 2.0039-6.6758 2.8398-10.273 2.3555-3.5977-0.48438-6.8984-2.2578-9.2891-4.9883-2.3867-2.7344-3.7031-6.2422-3.7031-9.8711zm27.508 8.2656-4.0234-4.0234 6.3672-6.3672c0.097657 0.70312 0.14844 1.4141 0.14844 2.125 0.003906 2.9414-0.86328 5.8164-2.4922 8.2656zm-14.629-60.145c-1.1367-1.1758-1.1211-3.0469 0.035156-4.207 1.1602-1.1562 3.0312-1.1719 4.207-0.035156l11.934 11.934c3.4336 3.4336 8.0898 5.3633 12.945 5.3633s9.5117-1.9297 12.945-5.3633l11.934-11.934c1.1758-1.1367 3.0469-1.1211 4.207 0.035156 1.1562 1.1602 1.1719 3.0312 0.035156 4.207l-11.934 11.934c-3.4336 3.4336-5.3633 8.0898-5.3633 12.945s1.9297 9.5117 5.3633 12.945l11.934 11.934c1.1367 1.1758 1.1211 3.0469-0.035156 4.207-1.1602 1.1562-3.0312 1.1719-4.207 0.035156l-11.934-11.934c-3.4336-3.4336-8.0898-5.3633-12.945-5.3633s-9.5117 1.9297-12.945 5.3633l-11.934 11.934c-1.1758 1.1367-3.0469 1.1211-4.207-0.035156-1.1562-1.1602-1.1719-3.0312-0.035156-4.207l11.934-11.934c3.4336-3.4336 5.3633-8.0898 5.3633-12.945s-1.9297-9.5117-5.3633-12.945zm41.27 49.754 6.3672 6.3672-4.0234 4.0234c-1.6289-2.4492-2.4961-5.3242-2.4922-8.2656 0-0.71094 0.050781-1.4219 0.14844-2.125zm14.852 17.125c-2.9414 0.003906-5.8164-0.86328-8.2656-2.4922l4.3867-4.3906v0.003906c3.4414 1.6445 7.5469 0.9375 10.242-1.7578 2.6992-2.6992 3.4023-6.8008 1.7578-10.242l4.3906-4.3867v-0.003906c2.0039 3.0273 2.8438 6.6797 2.3555 10.281-0.48438 3.5977-2.2578 6.8984-4.9922 9.2852-2.7344 2.3906-6.2422 3.707-9.875 3.7031z"/></svg>