<svg xmlns="http://www.w3.org/2000/svg" xmlns:xlink="http://www.w3.org/1999/xlink" viewBox="0 0 32 32" version="1.1" xml:space="preserve" style="" x="0px" y="0px" fill-rule="evenodd" clip-rule="evenodd" stroke-linejoin="round" stroke-miterlimit="2" fill="gray"><g transform="matrix(1,0,0,1,-432,-144)"><path d="M437.226,170.432C439.953,173.248 443.774,175 448,175C452.226,175 456.047,173.248 458.774,170.432C456.329,167.648 451.926,165 448,165C444.074,165 439.671,167.648 437.226,170.432ZM435.922,168.892C438.741,165.815 443.642,163 448,163C452.358,163 457.259,165.815 460.078,168.892C461.914,166.403 463,163.327 463,160C463,151.721 456.279,145 448,145C439.721,145 433,151.721 433,160C433,163.327 434.086,166.403 435.922,168.892ZM448,149C444.689,149 442,151.689 442,155C442,158.311 444.689,161 448,161C451.311,161 454,158.311 454,155C454,151.689 451.311,149 448,149ZM448,151C450.208,151 452,152.792 452,155C452,157.208 450.208,159 448,159C445.792,159 444,157.208 444,155C444,152.792 445.792,151 448,151Z"/></g></svg>