<svg width="22" height="22" viewBox="0 0 22 22" fill="none" xmlns="http://www.w3.org/2000/svg">
<path d="M11 0C4.99231 0 0 4.99231 0 11C0 17.0077 4.99231 22 11 22C17.0077 22 22 17.0077 22 11C22 4.99231 17.0077 0 11 0ZM16.7538 8.63077L10.2385 15.0615C9.73077 15.5692 9.05385 15.5692 8.54615 15.0615L5.24615 11.7615C4.73846 11.2538 4.73846 10.5769 5.24615 10.0692C5.75385 9.56154 6.43077 9.56154 6.93846 10.0692L9.30769 12.4385L14.9769 6.76923C15.4846 6.26154 16.2462 6.26154 16.6692 6.76923C17.2615 7.36154 17.2615 8.12308 16.7538 8.63077Z" fill="#ADADAD"/>
</svg>
