<svg width="26" height="26" viewBox="0 0 26 26" fill="none" xmlns="http://www.w3.org/2000/svg">
<path d="M11.9905 0C5.8905 0 0.890503 5 0.890503 11.1C0.890503 14.3 2.2905 17.2 4.4905 19.3C3.8905 18 3.5905 16.5 3.5905 14.9C3.5905 14.7 3.5905 14.6 3.5905 14.4C3.1905 13.4 2.9905 12.3 2.9905 11.1C2.9905 6.1 6.9905 2.1 11.9905 2.1C14.2905 2.1 16.2905 2.9 17.8905 4.3C19.4905 4.8 20.9905 5.6 22.1905 6.8C20.4905 2.8 16.5905 0 11.9905 0ZM14.6905 3.8C8.5905 3.8 3.5905 8.8 3.5905 14.9C3.5905 21 8.5905 26 14.6905 26C20.7905 26 25.7905 21 25.7905 14.9C25.7905 8.8 20.7905 3.8 14.6905 3.8ZM20.4905 12.5L13.8905 19C13.3905 19.5 12.6905 19.5 12.1905 19L8.8905 15.7C8.3905 15.2 8.3905 14.5 8.8905 14C9.3905 13.5 10.0905 13.5 10.5905 14L12.9905 16.4L18.6905 10.7C19.1905 10.2 19.9905 10.2 20.3905 10.7C20.9905 11.2 20.9905 12 20.4905 12.5Z" fill="#75B3D7"/>
</svg>
