<svg width="25" height="26" viewBox="0 0 25 26" fill="none" xmlns="http://www.w3.org/2000/svg">
<path d="M11.0952 0C4.96683 0 0 4.96683 0 11.0952C0 14.3284 1.38256 17.2409 3.59293 19.2692C3.02084 17.93 2.70012 16.4521 2.70012 14.9048C2.70012 14.7401 2.70445 14.5798 2.70878 14.4194C2.30572 13.3879 2.08035 12.2697 2.08035 11.0952C2.08035 6.11535 6.11535 2.08035 11.0952 2.08035C13.3489 2.08035 15.4119 2.90815 16.9938 4.27771C18.6148 4.76313 20.084 5.6126 21.2975 6.73079C19.6029 2.7738 15.6719 0 11.0952 0ZM13.7953 5.88998C18.7751 5.88998 22.8101 9.92499 22.8101 14.9048C22.8101 19.8846 18.7751 23.9197 13.7953 23.9197C8.81547 23.9197 4.78046 19.8846 4.78046 14.9048C4.78046 9.92499 8.8198 5.88998 13.7953 5.88998ZM13.7953 26C19.9237 26 24.8905 21.0332 24.8905 14.9048C24.8905 8.77646 19.9237 3.80963 13.7953 3.80963C7.66694 3.80963 2.70012 8.77646 2.70012 14.9048C2.70012 21.0332 7.67128 26 13.7953 26Z" fill="#75B3D7"/>
</svg>
