<?xml version="1.0" encoding="UTF-8"?><svg id="unchecked" xmlns="http://www.w3.org/2000/svg" viewBox="0 0 26 26"><defs><style>.cls-1{fill:#75b3d7;stroke-width:0px;}</style></defs><path class="cls-1" d="m21.84,6.73c-1.47-1.35-3.29-2.31-5.31-2.71-.71-.15-1.43-.22-2.18-.22-5.58,0-10.25,4.19-10.99,9.58-.07.5-.11,1-.11,1.52,0,1.55.32,3.02.91,4.37,1.7,3.95,5.64,6.73,10.19,6.73,6.1,0,11.1-5,11.1-11.1,0-3.22-1.39-6.14-3.61-8.17Zm-7.49,16.77c-1.81,0-3.49-.56-4.88-1.52-1.47-1.02-2.61-2.48-3.22-4.19-.32-.9-.5-1.88-.5-2.89,0-4.74,3.86-8.6,8.6-8.6,2.04,0,3.92.71,5.4,1.91,1.38,1.12,2.41,2.65,2.89,4.41.2.73.31,1.49.31,2.28,0,4.74-3.86,8.6-8.6,8.6Z"/><path class="cls-1" d="m21.84,6.73c-1.7-3.95-5.64-6.73-10.19-6.73C5.55,0,.55,5,.55,11.1c0,3.22,1.39,6.14,3.61,8.17,1.47,1.35,3.29,2.31,5.31,2.71-1.47-1.02-2.61-2.48-3.22-4.19-1.38-1.12-2.41-2.65-2.89-4.41-.2-.73-.31-1.49-.31-2.28C3.05,6.36,6.91,2.5,11.65,2.5c1.81,0,3.49.56,4.88,1.52,1.47,1.02,2.61,2.48,3.22,4.19,1.38,1.12,2.41,2.65,2.89,4.41.07-.5.11-1,.11-1.52,0-1.55-.32-3.02-.91-4.37Z"/></svg>