<?xml version="1.0" encoding="utf-8"?>
<!-- Generator: Adobe Illustrator 27.9.0, SVG Export Plug-In . SVG Version: 6.00 Build 0)  -->
<svg version="1.1" id="Ebene_1" xmlns="http://www.w3.org/2000/svg" xmlns:xlink="http://www.w3.org/1999/xlink" x="0px" y="0px"
	 viewBox="0 0 22 22" style="enable-background:new 0 0 22 22;" xml:space="preserve">
<g>
	<path d="M11,2c5,0,9,4,9,9s-4,9-9,9s-9-4-9-9S6,2,11,2 M11,0C4.9,0,0,4.9,0,11s4.9,11,11,11s11-4.9,11-11S17.1,0,11,0L11,0z"/>
</g>
<path d="M9.8,15.3v-3.1H6.7c-0.7,0-1.2-0.5-1.2-1.2S6,9.8,6.7,9.8h3.1V6.7c0-0.7,0.5-1.2,1.2-1.2s1.2,0.5,1.2,1.2v3.1h3.1
	c0.7,0,1.2,0.5,1.2,1.2s-0.5,1.2-1.2,1.2h-3.1v3.1c0,0.7-0.5,1.2-1.2,1.2S9.8,16,9.8,15.3z"/>
</svg>
