<?xml version="1.0" encoding="utf-8"?>
<!-- Generator: Adobe Illustrator 27.9.0, SVG Export Plug-In . SVG Version: 6.00 Build 0)  -->
<svg version="1.1" id="Ebene_1" xmlns="http://www.w3.org/2000/svg" xmlns:xlink="http://www.w3.org/1999/xlink" x="0px" y="0px"
	 viewBox="0 0 16 16" style="enable-background:new 0 0 16 16;" xml:space="preserve">
<style type="text/css">
	.st0{stroke:#000000;stroke-width:0.5;stroke-miterlimit:10;}
</style>
<path d="M15,3l-0.8,1c-0.7-0.4-1.5-0.6-2.3-0.6c-2.8,0-5.1,2.3-5.1,5.1c0,2,1.1,3.7,2.8,4.5v0.5c0,0.4-0.2,0.7-0.5,0.9
	c-0.3,0.2-0.7,0.1-1-0.1l-1.9-1.4c-0.2-0.2-0.4-0.5-0.4-0.8V9.6L0.3,3C0,2.6-0.1,2.1,0.1,1.7C0.3,1.3,0.7,1,1.2,1h12.9
	c0.5,0,0.9,0.3,1.1,0.7C15.4,2.1,15.3,2.6,15,3z"/>
<path class="st0" d="M12.5,5.2c0-0.3-0.3-0.6-0.6-0.6c-0.3,0-0.6,0.3-0.6,0.6v2.6H8.7c-0.3,0-0.6,0.3-0.6,0.6S8.3,9,8.7,9h2.6v2.6
	c0,0.3,0.3,0.6,0.6,0.6c0.3,0,0.6-0.3,0.6-0.6V9h2.6c0.3,0,0.6-0.3,0.6-0.6s-0.3-0.6-0.6-0.6h-2.6V5.2z"/>
</svg>
